<svg class="c-site-nav__logo" width="287" height="50" viewBox="153 0 100 73" xmlns="http://www.w3.org/2000/svg"><title>uxenterprise</title><g fill="none" fill-rule="evenodd"><path class="ux-fill" d="M78.405 8.14h-6.187l-14.99 22.025L42.5 8.141h-8.453v32.59c0 2.154-.268 4.243-.76 6.271-.495 2.028-1.306 3.83-2.417 5.407-1.11 1.577-2.584 2.854-4.409 3.83-1.827.976-4.074 1.465-6.739 1.465-2.666 0-4.913-.489-6.738-1.464-1.827-.977-3.294-2.254-4.405-3.83-1.11-1.579-1.906-3.38-2.398-5.408a26.357 26.357 0 0 1-.734-6.271V8.14H0v33.191c0 2.203.335 4.543.902 7.022C1.47 50.83 2.52 53.122 4 55.225c1.48 2.103 3.492 3.844 6.01 5.22 2.516 1.376 5.754 2.065 9.703 2.065 3.898 0 7.121-.689 9.664-2.066 2.54-1.375 4.554-3.116 6.035-5.219 1.48-2.103 2.583-4.394 3.15-6.871.568-2.479.932-4.819.932-7.022V13.263l14.244 20.529-19.474 28.576h6.49l16.321-24.566 16.396 24.566h6.493L60.567 33.945 78.405 8.141" fill="#F2F2F1"/><path d="M92.64.994h1.424V69.93H92.64V.994zm16.205 12.231h9.853v1.807h-7.69v5.32h6.49v1.832h-6.49v6.145h7.95v1.834h-10.113V13.225m13.736 0h2.242L131 23.863l1.85 3.512h.105c-.052-.861-.108-1.752-.17-2.673-.06-.92-.091-1.83-.091-2.724v-8.753h2.06v16.938h-2.242L126.309 19.5l-1.851-3.485h-.104c.069.86.134 1.734.195 2.62.06.887.092 1.777.092 2.672v8.857h-2.06V13.225m20.41 1.807h-5.16v-1.807h12.511v1.807h-5.161v15.131h-2.19V15.032m10.427-1.807h9.854v1.807h-7.69v5.32h6.49v1.832h-6.49v6.145h7.95v1.834h-10.114V13.225m15.9 8.03h2.867c1.338 0 2.364-.271 3.076-.813.713-.542 1.07-1.364 1.07-2.467 0-1.118-.357-1.901-1.07-2.349-.712-.447-1.738-.671-3.076-.671h-2.867v6.3zm7.22 8.908l-4.118-7.153h-3.102v7.153h-2.163V13.225h5.343c.869 0 1.673.082 2.412.245.738.164 1.372.435 1.902.813.53.38.942.87 1.239 1.472.295.603.442 1.343.442 2.22 0 1.327-.347 2.385-1.042 3.176-.695.792-1.625 1.335-2.789 1.628l4.327 7.384h-2.45zm10.74-8.469c1.495 0 2.602-.28 3.324-.84.72-.559 1.082-1.441 1.082-2.646 0-1.222-.366-2.07-1.095-2.543-.73-.474-1.835-.71-3.31-.71h-2.816v6.74h2.815zm-4.978-8.469h5.239c.938 0 1.798.086 2.58.257.783.173 1.447.453 1.993.84.548.387.975.9 1.28 1.536.302.637.455 1.42.455 2.35 0 .895-.153 1.67-.456 2.324a4.345 4.345 0 0 1-1.291 1.627c-.556.43-1.22.753-1.994.969-.773.214-1.629.322-2.567.322h-3.076v6.713H182.3V13.225zm17.178 8.03h2.866c1.338 0 2.364-.271 3.076-.813.713-.542 1.07-1.364 1.07-2.467 0-1.118-.357-1.901-1.07-2.349-.712-.447-1.738-.671-3.076-.671h-2.866v6.3zm7.22 8.908l-4.12-7.153h-3.1v7.153h-2.164V13.225h5.343c.869 0 1.673.082 2.41.245.74.164 1.375.435 1.904.813.53.38.942.87 1.239 1.472.294.603.443 1.343.443 2.22 0 1.327-.348 2.385-1.042 3.176-.696.792-1.626 1.335-2.791 1.628l4.328 7.384h-2.45zm5.76-16.938h2.164v16.938h-2.164V13.225zm6.907 13.245a7.132 7.132 0 0 0 2.151 1.537c.825.388 1.681.58 2.567.58 1.13 0 2.007-.253 2.634-.76.624-.509.938-1.175.938-2.002 0-.43-.075-.796-.222-1.098a2.39 2.39 0 0 0-.6-.774 4.356 4.356 0 0 0-.9-.581c-.347-.172-.72-.352-1.12-.542l-2.45-1.059c-.4-.172-.809-.377-1.226-.62a5.058 5.058 0 0 1-1.12-.877 4.169 4.169 0 0 1-.809-1.227c-.208-.473-.312-1.02-.312-1.64 0-.636.134-1.23.404-1.78.27-.552.643-1.03 1.121-1.434a5.218 5.218 0 0 1 1.694-.942 6.588 6.588 0 0 1 2.151-.337c1.025 0 1.972.194 2.841.582a7.12 7.12 0 0 1 2.215 1.51l-1.172 1.395c-.522-.5-1.1-.89-1.733-1.175-.635-.284-1.352-.426-2.15-.426-.958 0-1.727.219-2.308.659-.583.438-.874 1.045-.874 1.82 0 .413.084.761.248 1.045.165.285.387.535.665.75.277.215.582.404.912.567.33.164.668.315 1.016.452l2.426 1.033c.485.206.946.443 1.38.71a4.97 4.97 0 0 1 1.122.929c.312.353.56.766.743 1.24.181.473.273 1.02.273 1.64a4.448 4.448 0 0 1-1.564 3.42c-.504.44-1.112.784-1.825 1.034-.713.249-1.52.374-2.424.374-1.2 0-2.311-.224-3.336-.671a8.214 8.214 0 0 1-2.66-1.834l1.304-1.498m13.868-13.245h9.852v1.807h-7.688v5.32h6.489v1.832h-6.489v6.145h7.95v1.834h-10.114V13.225M108.766 40.83h2.163v9.993c0 1.016.105 1.869.314 2.557.207.689.49 1.24.847 1.653.355.413.777.709 1.264.89a4.47 4.47 0 0 0 1.564.27c.573 0 1.104-.09 1.59-.27a3.158 3.158 0 0 0 1.277-.89c.365-.413.652-.964.86-1.653.21-.688.313-1.541.313-2.557v-9.992h2.086v9.94c0 1.36-.157 2.506-.47 3.434-.312.93-.743 1.684-1.29 2.26a4.693 4.693 0 0 1-1.942 1.24 7.626 7.626 0 0 1-2.424.373 7.748 7.748 0 0 1-2.438-.373 4.685 4.685 0 0 1-1.954-1.24c-.548-.576-.978-1.33-1.29-2.26-.314-.928-.47-2.073-.47-3.433V40.83m16.682 13.247a7.138 7.138 0 0 0 2.152 1.536c.824.387 1.68.58 2.567.58 1.13 0 2.006-.253 2.632-.761.627-.507.938-1.175.938-2 0-.432-.073-.797-.221-1.098a2.402 2.402 0 0 0-.599-.775 4.397 4.397 0 0 0-.9-.58c-.348-.173-.72-.353-1.12-.543l-2.45-1.058c-.4-.173-.81-.38-1.226-.62a5.031 5.031 0 0 1-1.12-.878c-.33-.344-.6-.753-.81-1.227-.208-.473-.312-1.02-.312-1.64 0-.635.135-1.23.404-1.78.27-.551.643-1.03 1.122-1.434a5.218 5.218 0 0 1 1.694-.942 6.586 6.586 0 0 1 2.15-.336c1.025 0 1.973.194 2.842.582a7.14 7.14 0 0 1 2.216 1.51l-1.174 1.394c-.521-.5-1.1-.892-1.733-1.175-.635-.285-1.352-.426-2.151-.426-.956 0-1.725.22-2.307.658-.581.44-.873 1.046-.873 1.82 0 .414.082.763.248 1.046.164.285.387.534.665.75.278.214.581.404.912.568.33.163.668.313 1.016.452l2.425 1.031c.486.207.947.445 1.381.71.435.268.809.578 1.12.93.314.354.561.767.744 1.24.182.474.274 1.02.274 1.64a4.448 4.448 0 0 1-1.564 3.42c-.504.44-1.113.784-1.825 1.034-.713.25-1.521.373-2.424.373a8.221 8.221 0 0 1-5.996-2.504l1.303-1.497m13.869-13.247h9.853v1.808h-7.69v5.319h6.49v1.834h-6.49v6.145h7.95v1.834h-10.113V40.83m15.9 8.031h2.867c1.338 0 2.363-.27 3.076-.813.712-.543 1.07-1.365 1.07-2.467 0-1.118-.358-1.901-1.07-2.349-.713-.447-1.738-.67-3.076-.67h-2.867v6.3zm7.22 8.909l-4.118-7.153h-3.102v7.153h-2.163V40.83h5.343c.869 0 1.673.083 2.41.246.74.164 1.374.435 1.904.814.53.379.942.869 1.239 1.471.295.602.442 1.343.442 2.22 0 1.326-.347 2.385-1.043 3.177-.695.792-1.624 1.334-2.788 1.626l4.327 7.386h-2.45zm11.026-16.94h9.853v1.808h-7.689v5.319h6.49v1.834h-6.49v6.145h7.95v1.834h-10.114V40.83m16.76 8.186l-4.64-8.185h2.398l2.32 4.337c.227.397.44.78.64 1.15.2.37.429.805.69 1.304h.105c.242-.5.455-.934.638-1.304s.378-.753.587-1.15l2.268-4.337h2.294l-4.666 8.288 4.978 8.65h-2.398l-2.502-4.57a109.48 109.48 0 0 1-.69-1.279l-.77-1.432h-.105c-.243.516-.477.993-.703 1.432-.226.44-.444.866-.651 1.279l-2.477 4.57h-2.294l4.978-8.753m15.327.284c1.494 0 2.602-.28 3.324-.84.72-.558 1.082-1.44 1.082-2.646 0-1.222-.365-2.07-1.095-2.543-.731-.473-1.834-.71-3.311-.71h-2.815V49.3h2.815zm-4.978-8.47h5.238c.939 0 1.8.088 2.582.259.782.172 1.445.452 1.993.839.547.388.973.9 1.278 1.536.304.637.455 1.42.455 2.35 0 .896-.151 1.67-.455 2.324a4.332 4.332 0 0 1-1.292 1.626c-.556.432-1.22.754-1.993.969-.773.216-1.63.323-2.568.323h-3.075v6.714h-2.163V40.83zm15.014 0h9.853v1.808h-7.69v5.319h6.49v1.834h-6.49v6.145h7.95v1.834h-10.113V40.83m15.9 8.031h2.867c1.338 0 2.363-.27 3.075-.813.714-.543 1.07-1.365 1.07-2.467 0-1.118-.356-1.901-1.07-2.349-.712-.447-1.737-.67-3.075-.67h-2.867v6.3zm7.221 8.909l-4.12-7.153h-3.1v7.153h-2.165V40.83h5.344c.868 0 1.672.083 2.411.246.74.164 1.373.435 1.902.814.53.379.943.869 1.24 1.471.294.602.442 1.343.442 2.22 0 1.326-.348 2.385-1.042 3.177-.697.792-1.626 1.334-2.79 1.626l4.328 7.386h-2.45zm5.761-16.94h2.164v16.938h-2.164V40.831zm6.855 0h9.853v1.808h-7.689v5.319h6.49v1.834h-6.49v6.145h7.95v1.834h-10.114V40.83m13.737 0h2.24l6.18 10.638 1.85 3.513h.103c-.052-.86-.108-1.752-.169-2.673a41.188 41.188 0 0 1-.091-2.724v-8.753h2.06V57.77h-2.242l-6.205-10.665-1.85-3.486h-.104c.07.86.134 1.735.195 2.621.06.887.092 1.778.092 2.673v8.857h-2.06V40.83m15.875 8.47c0-1.36.191-2.582.573-3.667.383-1.084.913-2.005 1.59-2.762a6.898 6.898 0 0 1 2.412-1.743c.929-.405 1.941-.607 3.036-.607 1.043 0 1.956.211 2.738.633.782.421 1.425.908 1.929 1.459l-1.226 1.368a5.541 5.541 0 0 0-1.5-1.149c-.546-.285-1.184-.426-1.914-.426-.817 0-1.556.16-2.216.478a4.8 4.8 0 0 0-1.694 1.367c-.47.595-.834 1.314-1.095 2.157-.262.843-.391 1.791-.391 2.84 0 1.068.126 2.028.377 2.879.253.853.605 1.58 1.057 2.182a4.65 4.65 0 0 0 1.655 1.395c.651.327 1.386.49 2.203.49.834 0 1.559-.163 2.175-.49.618-.327 1.204-.792 1.761-1.395l1.225 1.317a7.59 7.59 0 0 1-2.294 1.807c-.852.43-1.825.645-2.92.645-1.078 0-2.072-.197-2.984-.593a6.76 6.76 0 0 1-2.372-1.717c-.669-.75-1.191-1.67-1.564-2.763-.375-1.093-.561-2.327-.561-3.705m15.875-8.47h9.852v1.808h-7.69v5.319h6.49v1.834h-6.49v6.145h7.951v1.834H296.81V40.83" fill="#F2F2F1"/></g></svg>